<?xml version="1.0" encoding="UTF-8" standalone="no"?>
<svg
   xmlns:dc="http://purl.org/dc/elements/1.1/"
   xmlns:cc="http://creativecommons.org/ns#"
   xmlns:rdf="http://www.w3.org/1999/02/22-rdf-syntax-ns#"
   xmlns:svg="http://www.w3.org/2000/svg"
   xmlns="http://www.w3.org/2000/svg"
   xmlns:sodipodi="http://sodipodi.sourceforge.net/DTD/sodipodi-0.dtd"
   xmlns:inkscape="http://www.inkscape.org/namespaces/inkscape"
   width="210mm"
   height="297mm"
   viewBox="0 0 210 297"
   version="1.1"
   id="svg8"
   inkscape:version="1.0.1 (3bc2e813f5, 2020-09-07)"
   sodipodi:docname="groupie-icon.svg">
  <defs
     id="defs2">
    <inkscape:path-effect
       effect="envelope"
       id="path-effect874"
       is_visible="true"
       lpeversion="1"
       yy="true"
       xx="false"
       bendpath1="m -69.696758,-112.15674 131.935201,-1.87088"
       bendpath2="m 23.136911,-115.05661 v 8.00466"
       bendpath3="M -88.687851,-76.351181 H 82.913332"
       bendpath4="m -28.911428,-115.05661 v 8.00466"
       bendpath1-nodetypes="cc"
       bendpath3-nodetypes="cc" />
    <inkscape:path-effect
       effect="envelope"
       id="path-effect853"
       is_visible="true"
       lpeversion="1"
       yy="true"
       xx="false"
       bendpath1="m -112.16201,-216.76649 9.40648,-18.33469 11.33005,20.76684"
       bendpath2="m -89.478842,-214.88401 v 7.71526"
       bendpath3="m -177.3802,-118.39518 136.731501,-2.05797"
       bendpath4="m -111.3379,-214.88401 v 7.71526"
       bendpath1-nodetypes="ccc"
       bendpath3-nodetypes="cc" />
  </defs>
  <sodipodi:namedview
     id="base"
     pagecolor="#ffffff"
     bordercolor="#666666"
     borderopacity="1.0"
     inkscape:pageopacity="0.0"
     inkscape:pageshadow="2"
     inkscape:zoom="0.70710678"
     inkscape:cx="79.46078"
     inkscape:cy="-927.51427"
     inkscape:document-units="px"
     inkscape:current-layer="layer1"
     inkscape:document-rotation="0"
     showgrid="false"
     showborder="false"
     inkscape:snap-grids="true"
     inkscape:snap-to-guides="true"
     inkscape:snap-midpoints="false"
     inkscape:snap-global="false"
     inkscape:window-width="1718"
     inkscape:window-height="1368"
     inkscape:window-x="58"
     inkscape:window-y="31"
     inkscape:window-maximized="0" />
  <metadata
     id="metadata5">
    <rdf:RDF>
      <cc:Work
         rdf:about="">
        <dc:format>image/svg+xml</dc:format>
        <dc:type
           rdf:resource="http://purl.org/dc/dcmitype/StillImage" />
        <dc:title></dc:title>
      </cc:Work>
    </rdf:RDF>
  </metadata>
  <g
     inkscape:label="Layer 1"
     inkscape:groupmode="layer"
     id="layer1">
    <g
       id="g977"
       transform="translate(0,-29.742511)">
      <path
         id="path876"
         style="opacity:1;fill:#999999;stroke:#000000;stroke-width:2.63144;stroke-miterlimit:4;stroke-dasharray:none"
         d="M -2.8872595,-240.01528 88.216594,-73.323988 H -93.991115 Z"
         sodipodi:nodetypes="cccc" />
      <path
         id="rect16"
         style="display:inline;opacity:1;fill:#00ff1d;fill-opacity:1;stroke-width:0.264583"
         d="M -2.8872594,-235.10118 82.913332,-76.351181 H -88.687851 Z"
         sodipodi:nodetypes="cccc" />
      <g
         aria-label="GROUPIE"
         id="text857"
         style="font-style:normal;font-variant:normal;font-weight:bold;font-stretch:normal;font-size:10.5833px;line-height:1.25;font-family:sans-serif;-inkscape-font-specification:'sans-serif Bold';fill:#0000ff;fill-opacity:1;stroke:#000080;stroke-width:0.264583"
         inkscape:path-effect="#path-effect874">
        <path
           d="m -63.240747,-79.092965 c -2.011992,1.0882 -4.018196,1.902852 -5.996177,2.445655 -1.977665,0.542717 -3.920318,0.813268 -5.800827,0.812974 -4.250722,-6.64e-4 -6.87857,-1.609379 -7.657066,-4.815241 -0.775087,-3.239712 0.411886,-7.559459 3.336372,-13.078845 2.934387,-5.538072 6.376885,-9.972368 9.979132,-13.164918 3.62989,-3.21705 7.018688,-4.85462 10.404117,-4.90173 1.306672,-0.0182 2.462971,0.18111 3.487839,0.59882 1.033388,0.41745 1.926147,1.04607 2.691248,1.88587 -0.895542,2.39786 -1.792589,4.79573 -2.691142,7.19361 -0.77238,-1.09087 -1.614934,-1.90101 -2.550388,-2.43151 -0.926142,-0.53059 -1.95142,-0.78919 -3.097606,-0.77682 -2.12599,0.0229 -4.206695,1.03861 -6.325684,3.04314 -2.091405,1.97869 -4.092078,4.837433 -5.877287,8.51766 -1.779409,3.668272 -2.534959,6.474046 -2.191995,8.472391 0.341489,1.989622 1.757809,2.984027 4.171822,2.979491 0.655423,-0.0012 1.285174,-0.05659 1.887555,-0.166165 0.619823,-0.124895 1.20423,-0.311786 1.752308,-0.560822 0.926977,-2.246891 1.852628,-4.493772 2.776953,-6.740644 l -3.658614,0.01628 c 0.873716,-1.996524 1.746382,-3.99304 2.617998,-5.989548 l 8.947574,-0.06013 c -2.060582,5.573437 -4.129293,11.146931 -6.206132,16.720482 z"
           style="font-style:normal;font-variant:normal;font-weight:bold;font-stretch:normal;font-family:sans-serif;-inkscape-font-specification:'sans-serif Bold';fill:#0000ff;stroke:#000080;stroke-width:0.264583"
           id="path859"
           inkscape:original-d="m -21.532057,-107.77542 q -0.744138,0.36173 -1.545121,0.5426 -0.800982,0.18087 -1.65364,0.18087 -1.927525,0 -3.054068,-1.07487 -1.126542,-1.08003 -1.126542,-2.92487 0,-1.86552 1.147213,-2.93522 1.147213,-1.0697 3.141917,-1.0697 0.769976,0 1.472774,0.1447 0.707965,0.14469 1.333247,0.42891 v 1.5968 q -0.645953,-0.3669 -1.286739,-0.54777 -0.635618,-0.18087 -1.276404,-0.18087 -1.188554,0 -1.834507,0.66663 -0.640786,0.66145 -0.640786,1.89652 0,1.22472 0.620115,1.89135 0.620116,0.66662 1.762161,0.66662 0.310058,0 0.573607,-0.0362 0.268716,-0.0413 0.480589,-0.12403 v -1.49861 h -1.214392 v -1.33325 h 3.100576 z" />
        <path
           d="m -43.80936,-95.948869 c 1.202543,-0.0081 2.154964,-0.364917 2.845172,-1.070999 0.701795,-0.707916 1.24191,-1.86186 1.638139,-3.471832 0.391507,-1.59079 0.418885,-2.73195 0.09612,-3.41192 -0.314298,-0.68189 -1.027718,-1.01666 -2.151712,-1.00486 l -2.257274,0.0237 c -0.859509,2.98404 -1.721331,5.968093 -2.585465,8.952165 0.805008,-0.0054 1.610015,-0.01085 2.415023,-0.01627 z m -4.218841,6.233773 c -1.279508,4.402128 -2.564049,8.804291 -3.853624,13.20649 l -6.552824,3.11e-4 c 3.894809,-11.609739 7.754472,-23.219229 11.578988,-34.828465 l 7.775981,-0.10575 c 2.594339,-0.0353 4.314041,0.71109 5.20843,2.24385 0.898023,1.52352 1.048497,3.98226 0.368297,7.32176 -0.472288,2.318738 -1.203575,4.215839 -2.236335,5.709693 -1.021265,1.491509 -2.344548,2.590208 -3.97675,3.302261 0.735999,0.276533 1.306922,0.913599 1.723973,1.910944 0.43088,0.98171 0.765863,2.479973 1.025515,4.495694 0.4195,3.312746 0.911267,6.629054 1.4753,9.948925 l -6.978334,3.31e-4 c -0.359656,-2.8988 -0.664259,-5.794884 -0.913809,-8.688255 -0.151258,-1.746788 -0.431989,-2.9388 -0.860218,-3.575946 -0.417885,-0.637358 -1.109364,-0.953613 -2.085951,-0.949316 -0.566213,0.0025 -1.132426,0.005 -1.698639,0.0075 z"
           style="font-style:normal;font-variant:normal;font-weight:bold;font-stretch:normal;font-family:sans-serif;-inkscape-font-specification:'sans-serif Bold';fill:#0000ff;stroke:#000080;stroke-width:0.264583"
           id="path861"
           inkscape:original-d="m -16.95354,-111.49611 q 0.625283,0 0.894,-0.23254 0.273884,-0.23255 0.273884,-0.76481 0,-0.5271 -0.273884,-0.75448 -0.268717,-0.22737 -0.894,-0.22737 h -0.837155 v 1.9792 z m -0.837155,1.37459 v 2.91971 h -1.989536 v -7.71527 h 3.038564 q 1.52445,0 2.232415,0.5116 0.713132,0.51159 0.713132,1.61746 0,0.76481 -0.372069,1.25574 -0.366901,0.49092 -1.111039,0.72346 0.408242,0.093 0.728635,0.42375 0.32556,0.32556 0.656289,0.99218 l 1.080034,2.19108 h -2.118727 l -0.940509,-1.91719 q -0.284219,-0.57878 -0.578774,-0.79065 -0.289387,-0.21187 -0.775144,-0.21187 z" />
        <path
           d="m -17.473873,-105.79626 c -1.626845,0.0175 -2.982176,1.05335 -4.131714,3.10438 -1.14401,2.04119 -1.988103,4.938077 -2.451443,8.633887 -0.46368,3.698522 -0.330866,6.544916 0.473119,8.592869 0.800627,2.039403 2.193438,3.058817 4.115911,3.055204 1.933396,-0.0036 3.510547,-1.029485 4.665734,-3.080572 1.159796,-2.059268 1.785896,-4.921816 1.953758,-8.634299 0.167748,-3.709967 -0.189082,-6.611109 -0.992047,-8.640409 -0.806964,-2.03938 -1.99723,-3.04872 -3.633318,-3.03106 z m 0.544654,-6.58394 c 3.157395,-0.0439 5.525449,1.54334 7.3138344,4.77196 1.774681,3.20384 2.7863651,7.738582 2.7719807,13.447662 -0.014454,5.736565 -1.0757985,10.189209 -3.4295081,13.46098 -2.340369,3.253225 -5.670691,4.874492 -9.773264,4.873851 -4.091177,-6.39e-4 -7.1341,-1.620357 -8.918049,-4.848998 -1.783448,-3.24786 -2.073023,-7.655871 -1.113034,-13.34737 0.95523,-5.663289 2.722672,-10.179065 5.031332,-13.407475 2.335431,-3.25322 4.968084,-4.90679 8.116708,-4.95061 z"
           style="font-style:normal;font-variant:normal;font-weight:bold;font-stretch:normal;font-family:sans-serif;-inkscape-font-specification:'sans-serif Bold';fill:#0000ff;stroke:#000080;stroke-width:0.264583"
           id="path863"
           inkscape:original-d="m -8.1065626,-113.61484 q -0.9095023,0 -1.4107621,0.67179 -0.5012603,0.6718 -0.5012603,1.89136 0,1.21439 0.5012603,1.88618 0.5012598,0.67179 1.4107621,0.67179 0.9146699,0 1.4159297,-0.67179 0.5012598,-0.67179 0.5012598,-1.88618 0,-1.21956 -0.5012598,-1.89136 -0.5012598,-0.67179 -1.4159297,-0.67179 z m 0,-1.44177 q 1.8603456,0 2.9145415,1.06454 1.0541958,1.06453 1.0541958,2.94038 0,1.87068 -1.0541958,2.93521 -1.0541959,1.06453 -2.9145415,1.06453 -1.855178,0 -2.9145414,-1.06453 -1.054196,-1.06453 -1.054196,-2.93521 0,-1.87585 1.054196,-2.94038 1.0593634,-1.06454 2.9145414,-1.06454 z" />
        <path
           d="m -2.9769048,-111.93348 5.0914173,-0.0692 c 0.5160464,7.0918 1.0194627,14.183691 1.5102489,21.275672 0.2032542,2.937073 0.658448,5.025225 1.4030488,6.29715 0.7510849,1.250715 1.8863549,1.875225 3.3818965,1.872369 1.506458,-0.0029 2.5223173,-0.632 3.0228853,-1.888502 0.51149,-1.277399 0.571284,-3.373881 0.205642,-6.318508 C 10.755305,-97.875016 9.859747,-104.9854 8.9515585,-112.0957 l 5.0914175,-0.0692 c 1.200209,7.12407 2.387788,14.248231 3.562737,21.372482 0.83477,5.061592 0.610936,8.792218 -0.806923,11.274036 -1.409619,2.467358 -4.035778,3.6978 -7.7508861,3.697219 -3.7037119,-5.78e-4 -6.5551905,-1.229819 -8.43139211,-3.681796 -1.88773319,-2.467076 -2.81802029,-6.167542 -2.95922969,-11.196129 -0.1987656,-7.078208 -0.4101612,-14.156322 -0.6341869,-21.234352 z"
           style="font-style:normal;font-variant:normal;font-weight:bold;font-stretch:normal;font-family:sans-serif;-inkscape-font-specification:'sans-serif Bold';fill:#0000ff;stroke:#000080;stroke-width:0.264583"
           id="path865"
           inkscape:original-d="m -2.6340465,-114.91708 h 1.98953634 v 4.62503 q 0,0.95601 0.31005761,1.36942 0.31522523,0.40824 1.0231901,0.40824 0.71313245,0 1.02319005,-0.40824 0.3152253,-0.41341 0.3152253,-1.36942 v -4.62503 h 1.9895363 v 4.62503 q 0,1.63813 -0.8216527,2.43912 -0.8216526,0.80098 -2.50629895,0.80098 -1.6794787,0 -2.50113135,-0.80098 -0.8216527,-0.80099 -0.8216527,-2.43912 z" />
        <path
           d="m 19.015378,-112.23256 8.45043,-0.11492 c 2.512647,-0.0342 4.733133,0.95636 6.75809,2.97623 2.01842,1.99342 3.725958,4.89549 4.979599,8.64079 1.26537,3.78034 1.483657,6.673008 0.557064,8.726214 -0.917525,2.028461 -2.917549,3.046377 -5.901184,3.058333 l -3.988649,0.01598 c 1.012794,4.139071 2.021357,8.278172 3.02569,12.417303 l -6.552826,3.1e-4 c -2.407591,-11.906997 -4.85033,-23.81374 -7.328214,-35.72024 z m 6.749975,6.61865 c 0.824471,3.33197 1.6462,6.663953 2.465188,9.995959 l 3.193722,-0.02053 c 1.119552,-0.0072 1.866115,-0.444805 2.222664,-1.313613 0.352611,-0.886463 0.285292,-2.126789 -0.185093,-3.730156 -0.46937,-1.5999 -1.125697,-2.83411 -1.944881,-3.69124 -0.820901,-0.85893 -1.743309,-1.28253 -2.7837,-1.2716 z"
           style="font-style:normal;font-variant:normal;font-weight:bold;font-stretch:normal;font-family:sans-serif;-inkscape-font-specification:'sans-serif Bold';fill:#0000ff;stroke:#000080;stroke-width:0.264583"
           id="path867"
           inkscape:original-d="m 5.9597188,-114.91708 h 3.3021135 q 1.4727737,0 2.2582527,0.65629 0.790647,0.65112 0.790647,1.86034 0,1.2144 -0.790647,1.87069 -0.785479,0.65112 -2.2582527,0.65112 H 7.9492551 v 2.67683 H 5.9597188 Z m 1.9895363,1.44177 v 2.1549 h 1.1007045 q 0.5787742,0 0.8939994,-0.27905 0.315225,-0.28422 0.315225,-0.80099 0,-0.51676 -0.315225,-0.79581 -0.3152252,-0.27905 -0.8939994,-0.27905 z" />
        <path
           d="m 38.865291,-112.50251 5.091417,-0.0692 c 4.864217,12.01906 9.693289,24.038359 14.487214,36.057909 l -6.552824,3.11e-4 c -4.306789,-11.996574 -8.648725,-23.9929 -13.025807,-35.98898 z"
           style="font-style:normal;font-variant:normal;font-weight:bold;font-stretch:normal;font-family:sans-serif;-inkscape-font-specification:'sans-serif Bold';fill:#0000ff;stroke:#000080;stroke-width:0.264583"
           id="path869"
           inkscape:original-d="m 13.716326,-114.91708 h 1.989536 v 7.71527 h -1.989536 z" />
        <path
           d="m 48.942333,-112.63955 13.740214,-0.18685 c 1.297292,2.3591 2.593249,4.7182 3.887871,7.07732 l -9.13266,0.0948 c 1.082704,2.24646 2.164189,4.49293 3.244456,6.739402 l 9.02273,-0.06864 c 1.282453,2.358682 2.56357,4.717374 3.843352,7.076076 l -9.477738,0.04718 c 1.325824,2.763676 2.649803,5.527366 3.971939,8.291068 l 11.005602,-0.02414 c 1.291687,2.359433 2.582039,4.718876 3.871056,7.078328 l -18.058565,8.57e-4 C 59.589651,-88.556195 54.283565,-100.59799 48.942333,-112.63955 Z"
           style="font-style:normal;font-variant:normal;font-weight:bold;font-stretch:normal;font-family:sans-serif;-inkscape-font-specification:'sans-serif Bold';fill:#0000ff;stroke:#000080;stroke-width:0.264583"
           id="path871"
           inkscape:original-d="m 17.654059,-114.91708 h 5.369164 v 1.50378 h -3.379628 v 1.4366 h 3.17809 v 1.50378 h -3.17809 v 1.76733 h 3.493316 v 1.50378 h -5.482852 z" />
      </g>
      <g
         aria-label="TAB"
         id="text844"
         style="font-style:normal;font-variant:normal;font-weight:bold;font-stretch:normal;font-size:10.5833px;line-height:1.25;font-family:sans-serif;-inkscape-font-specification:'sans-serif Bold';opacity:1;fill:#0000ff;fill-opacity:1;stroke:#000080;stroke-width:0.264583"
         inkscape:path-effect="#path-effect853"
         transform="translate(99.868272)">
        <path
           d="m -113.67831,-214.33546 7.49935,-12.47124 c -1.6188,6.93893 -3.26178,13.93016 -4.92894,20.97371 l -5.10525,3.63187 c -10.2907,27.91853 -21.36425,56.73432 -33.22065,86.44735 l -12.77841,0.0932 c 15.0803,-28.80616 29.08973,-56.7114 42.02829,-83.71573 l -5.11557,3.63921 c 3.95824,-6.25253 7.83197,-12.45198 11.62118,-18.59835 z"
           style="font-style:normal;font-variant:normal;font-weight:bold;font-stretch:normal;font-family:sans-serif;-inkscape-font-specification:'sans-serif Bold';fill:#0000ff;stroke:#000080;stroke-width:0.264583"
           id="path846"
           inkscape:original-d="m -111.3379,-214.88401 h 7.11065 v 1.50378 h -2.55797 v 6.21148 h -1.98954 v -6.21148 h -2.56314 z" />
        <path
           d="m -101.66811,-137.37419 -10.3729,-0.37848 -6.29027,0.41962 c -1.95192,7.13822 -4.08453,14.27125 -6.40873,21.39922 l -12.84476,0.0937 c 17.13178,-37.99559 27.71606,-76.23009 33.66761,-114.72785 l 0.85422,-1.42054 1.72011,2.69547 c -0.16462,37.96315 4.507683,75.51478 15.684826,112.63371 l -12.837284,0.29296 c -1.244961,-6.99241 -2.299432,-13.99504 -3.172822,-21.00777 z m -11.26688,-21.78092 2.92253,-0.45785 6.20103,0.77895 c -1.1089,-15.35969 -1.40491,-30.76532 -0.98543,-46.21564 -0.71471,5.19747 -1.51732,10.45612 -2.4123,15.77599 -1.59836,10.04909 -3.49703,20.08848 -5.72583,30.11855 z"
           style="font-style:normal;font-variant:normal;font-weight:bold;font-stretch:normal;font-family:sans-serif;-inkscape-font-specification:'sans-serif Bold';fill:#0000ff;stroke:#000080;stroke-width:0.264583"
           id="path848"
           inkscape:original-d="m -99.338674,-208.57434 h -3.110916 l -0.49092,1.40559 h -1.99987 l 2.8577,-7.71526 h 2.371937 l 2.857697,7.71526 h -1.999871 z m -2.614816,-1.43143 h 2.113556 l -1.054196,-3.06957 z" />
        <path
           d="m -81.541997,-179.508 c 0.953635,0.31645 1.356021,-0.33293 1.16816,-1.90104 -0.191209,-1.59589 -0.963675,-4.01044 -2.262551,-7.39222 -1.254357,-3.26588 -2.436808,-5.97088 -3.37512,-7.86043 -0.973484,-1.97191 -1.743831,-3.20569 -2.346464,-3.6378 l -2.146348,-1.53901 c 1.813025,7.01514 3.691878,14.09077 5.636558,21.22689 1.108588,0.36787 2.217177,0.73574 3.325765,1.10361 z m 15.881522,44.12458 c 2.168864,0.0735 3.340282,-0.99124 3.445165,-3.13956 0.12432,-2.17357 -0.841569,-5.39101 -2.769472,-9.79616 -1.864934,-4.26127 -3.724805,-7.5646 -5.397664,-9.77735 -1.70966,-2.2816 -3.320255,-3.5834 -4.899857,-3.85303 l -4.612611,-0.78735 c 2.541295,8.95392 5.183371,18.00045 7.926229,27.13959 z m -6.693846,-34.75776 c 2.142083,1.88298 4.773939,5.03764 7.856188,9.28037 3.053708,4.20346 6.516102,9.43863 9.917586,15.38202 5.325322,9.3049 8.10138,16.03947 7.595861,20.81748 -0.493878,4.66846 -4.258927,7.21655 -10.908943,7.36831 l -21.196455,0.48373 c -7.075355,-36.61742 -13.068357,-71.87965 -17.979005,-105.78671 l 3.289247,5.15436 c 0.929433,1.45645 2.929467,5.57685 5.096908,9.80952 2.383537,4.65079 5.857984,11.10913 10.191966,19.6677 2.301001,4.54392 4.043235,8.23638 5.147471,11.33461 1.072424,3.02616 1.408132,5.17676 0.989176,6.48861 z"
           style="font-style:normal;font-variant:normal;font-weight:bold;font-stretch:normal;font-family:sans-serif;-inkscape-font-specification:'sans-serif Bold';fill:#0000ff;stroke:#000080;stroke-width:0.264583"
           id="path850"
           inkscape:original-d="m -92.739615,-211.89713 q 0.470254,0 0.713132,-0.2067 0.242879,-0.20671 0.242879,-0.60978 0,-0.39791 -0.242879,-0.60461 -0.242878,-0.21188 -0.713132,-0.21188 h -1.100705 v 1.63297 z m 0.06718,3.37446 q 0.599445,0 0.899167,-0.25321 0.30489,-0.25321 0.30489,-0.76481 0,-0.50126 -0.299722,-0.7493 -0.299723,-0.25322 -0.904335,-0.25322 h -1.167884 v 2.02054 z m 1.850011,-2.77501 q 0.640785,0.18603 0.992184,0.68729 0.351398,0.50126 0.351398,1.2299 0,1.11621 -0.754473,1.66397 -0.754474,0.54777 -2.294426,0.54777 h -3.302114 v -7.71526 h 2.986888 q 1.607132,0 2.325432,0.48575 0.723468,0.48576 0.723468,1.55546 0,0.56327 -0.263549,0.96118 -0.263549,0.39274 -0.764808,0.58394 z" />
      </g>
    </g>
    <rect
       style="opacity:1;fill:none;fill-opacity:1;stroke:#f2f2f2;stroke-width:0.264583;stroke-miterlimit:4;stroke-dasharray:none"
       id="rect981"
       width="188.13907"
       height="188.13905"
       x="-96.956795"
       y="-281.19553" />
  </g>
</svg>
